<?xml version="1.0" standalone="no"?>
<!DOCTYPE svg PUBLIC "-//W3C//DTD SVG 20010904//EN"
 "http://www.w3.org/TR/2001/REC-SVG-20010904/DTD/svg10.dtd">
<svg version="1.0" xmlns="http://www.w3.org/2000/svg"
 width="700.000000pt" height="700.000000pt" viewBox="0 0 700.000000 700.000000"
 preserveAspectRatio="xMidYMid meet">
<metadata>
Created by potrace 1.11, written by Peter Selinger 2001-2013
</metadata>
<g transform="translate(0.000000,700.000000) scale(0.100000,-0.100000)"
fill="#000000" stroke="none">
<path d="M1260 6993 c-237 -37 -308 -57 -466 -133 -396 -187 -670 -540 -767
-985 l-22 -100 0 -2275 0 -2275 23 -104 c127 -568 528 -968 1095 -1093 l102
-23 2275 0 2275 0 102 23 c565 125 970 530 1095 1095 l23 102 0 2275 0 2275
-23 104 c-128 571 -539 979 -1108 1098 -72 15 -274 17 -2329 19 -1237 1 -2261
0 -2275 -3z m407 -2485 c28 -15 63 -43 77 -61 59 -77 56 -33 56 -934 l0 -828
-24 -51 c-13 -28 -41 -65 -62 -83 -73 -60 -95 -62 -570 -59 -418 3 -430 4
-469 25 -47 25 -95 74 -121 123 -18 33 -19 75 -19 875 l0 840 22 41 c38 72 99
116 188 137 11 3 211 4 445 4 l425 -2 52 -27z m1528 9 c50 -23 100 -70 128
-122 l22 -40 0 -840 0 -840 -21 -40 c-28 -51 -68 -91 -119 -119 -39 -20 -52
-21 -468 -24 -474 -3 -498 -1 -569 58 -20 16 -48 53 -62 82 l-26 52 0 828 c0
902 -3 858 56 935 26 34 86 71 139 84 17 4 221 7 455 6 386 -2 429 -4 465 -20z
m1560 -9 c61 -32 88 -59 114 -118 20 -44 21 -61 21 -878 0 -828 0 -832 -21
-877 -12 -25 -40 -61 -62 -81 -75 -63 -95 -65 -574 -62 -418 3 -429 4 -469 25
-22 12 -57 40 -77 62 -69 76 -67 53 -67 936 0 846 0 845 50 914 32 45 85 83
138 97 36 10 151 13 472 11 l425 -2 50 -27z m1504 16 c110 -32 188 -145 178
-254 -9 -98 -59 -169 -147 -209 -43 -20 -64 -21 -479 -21 -301 0 -446 4 -472
12 -55 16 -118 73 -145 132 -66 142 17 310 169 346 18 5 215 8 438 9 341 1
414 -1 458 -15z m12 -776 c51 -15 114 -69 142 -122 22 -40 22 -49 25 -480 3
-476 2 -488 -52 -559 -14 -19 -50 -47 -78 -63 l-53 -29 -450 0 -450 0 -50 26
c-57 30 -109 92 -125 147 -15 54 -14 873 2 924 15 51 77 120 130 147 42 20 56
21 482 21 304 0 451 -4 477 -12z"/>
</g>
</svg>
